<?xml version="1.0" encoding="UTF-8"?>
<!DOCTYPE svg PUBLIC "-//W3C//DTD SVG 1.1//EN" "http://www.w3.org/Graphics/SVG/1.1/DTD/svg11.dtd">
<svg xmlns="http://www.w3.org/2000/svg" version="1.1" width="3500px" height="1440px" style="shape-rendering:geometricPrecision; text-rendering:geometricPrecision; image-rendering:optimizeQuality; fill-rule:evenodd; clip-rule:evenodd" xmlns:xlink="http://www.w3.org/1999/xlink">
<g><path style="opacity:0.994" fill="#74263f" d="M 719.5,391.5 C 714.486,395.869 709.153,400.035 703.5,404C 674.281,423.769 644.948,443.269 615.5,462.5C 617.618,429.371 616.452,396.371 612,363.5C 611.037,358.475 609.537,353.642 607.5,349C 636.19,353.928 661.024,366.428 682,386.5C 686.084,391.577 689.75,396.91 693,402.5C 701.741,398.533 710.574,394.866 719.5,391.5 Z"/></g>
<g><path style="opacity:0.993" fill="#ab495b" d="M 2506.5,408.5 C 2503.88,406.669 2501.22,405.169 2498.5,404C 2481.17,415.667 2463.83,427.333 2446.5,439C 2447.82,439.816 2448.49,440.983 2448.5,442.5C 2430.95,424.599 2409.61,417.765 2384.5,422C 2362.19,427.304 2343.69,438.804 2329,456.5C 2304.93,486.295 2287.43,519.628 2276.5,556.5C 2276.63,555.761 2276.46,555.094 2276,554.5C 2238.63,580.491 2201.13,605.491 2163.5,629.5C 2170.16,561.966 2194.66,501.966 2237,449.5C 2292.05,390.367 2359.88,365.867 2440.5,376C 2466.48,379.158 2488.48,389.992 2506.5,408.5 Z"/></g>
<g><path style="opacity:0.991" fill="#7a2a42" d="M 921.5,430.5 C 920.504,430.586 919.671,430.252 919,429.5C 896.557,444.634 874.057,459.634 851.5,474.5C 824.296,441.587 789.296,427.753 746.5,433C 731.321,434.128 716.654,437.462 702.5,443C 698.743,491.494 694.41,539.994 689.5,588.5C 688.732,587.737 688.232,586.737 688,585.5C 661.253,603.79 634.42,621.957 607.5,640C 605.714,641.196 604.381,642.696 603.5,644.5C 609.775,583.986 613.775,523.319 615.5,462.5C 644.948,443.269 674.281,423.769 703.5,404C 709.153,400.035 714.486,395.869 719.5,391.5C 766.766,372.99 814.433,371.824 862.5,388C 885.808,397.301 905.475,411.468 921.5,430.5 Z"/></g>
<g><path style="opacity:0.995" fill="#843047" d="M 1095.5,368.5 C 1110.99,367.767 1126.33,368.934 1141.5,372C 1163.15,377.654 1174.49,391.654 1175.5,414C 1174.37,429.515 1171.04,444.515 1165.5,459C 1147.21,461.861 1128.88,462.195 1110.5,460C 1079.39,454.893 1065.89,436.727 1070,405.5C 1071.89,393.925 1074.73,382.592 1078.5,371.5C 1084.25,370.201 1089.92,369.201 1095.5,368.5 Z"/></g>
<g><path style="opacity:0.991" fill="#b24d5f" d="M 2506.5,408.5 C 2529.55,433.145 2539.38,462.478 2536,496.5C 2532.38,535.11 2512.88,562.277 2477.5,578C 2440.41,591.215 2406.07,586.215 2374.5,563C 2366.17,555.174 2359.17,546.34 2353.5,536.5C 2354.17,536.167 2354.83,535.833 2355.5,535.5C 2376.68,541.272 2397.68,540.772 2418.5,534C 2449.06,519.722 2461.89,495.889 2457,462.5C 2454.97,455.445 2452.14,448.778 2448.5,442.5C 2448.49,440.983 2447.82,439.816 2446.5,439C 2463.83,427.333 2481.17,415.667 2498.5,404C 2501.22,405.169 2503.88,406.669 2506.5,408.5 Z"/></g>
<g><path style="opacity:0.994" fill="#812e45" d="M 921.5,430.5 C 941.49,452.552 956.157,477.885 965.5,506.5C 939.799,524.857 913.799,542.857 887.5,560.5C 882.068,528.982 870.068,500.316 851.5,474.5C 874.057,459.634 896.557,444.634 919,429.5C 919.671,430.252 920.504,430.586 921.5,430.5 Z"/></g>
<g><path style="opacity:0.99" fill="#c05666" d="M 2739.5,508.5 C 2746.75,508.748 2752.92,511.414 2758,516.5C 2759.3,518.365 2759.63,520.365 2759,522.5C 2720.16,549.852 2696.16,586.852 2687,633.5C 2700.59,599.596 2721.42,571.096 2749.5,548C 2776.65,528.395 2806.98,519.062 2840.5,520C 2858.8,522.398 2874.3,530.232 2887,543.5C 2908.94,568.958 2920.94,598.624 2923,632.5C 2927.84,691.99 2916.17,747.99 2888,800.5C 2848.52,866.992 2790.02,896.492 2712.5,889C 2667.05,879.212 2634.21,853.379 2614,811.5C 2602.74,784.133 2597.58,755.633 2598.5,726C 2597.69,661.739 2617.86,605.239 2659,556.5C 2681.33,532.919 2708.17,516.919 2739.5,508.5 Z M 2785.5,566.5 C 2808.16,564.586 2823.66,574.253 2832,595.5C 2840.59,622.84 2843.93,650.84 2842,679.5C 2840.64,720.599 2830.98,759.599 2813,796.5C 2805.76,810.148 2796.26,821.981 2784.5,832C 2763.92,846.828 2742.59,848.161 2720.5,836C 2710.91,828.077 2704.08,818.243 2700,806.5C 2676.83,727.688 2690.83,656.355 2742,592.5C 2753.74,579.055 2768.24,570.389 2785.5,566.5 Z"/></g>
<g><path style="opacity:0.986" fill="#a24356" d="M 1944.5,537.5 C 1944.59,538.496 1944.25,539.329 1943.5,540C 1919.17,556.333 1894.83,572.667 1870.5,589C 1870.12,589.951 1869.78,590.784 1869.5,591.5C 1861.27,584.061 1851.94,582.561 1841.5,587C 1828.88,593.623 1818.04,602.456 1809,613.5C 1799.86,625.462 1791.36,637.795 1783.5,650.5C 1782.75,649.427 1781.75,649.26 1780.5,650C 1771.83,656 1763.17,662 1754.5,668C 1753.56,668.692 1752.9,668.525 1752.5,667.5C 1770.82,613.368 1802.49,568.868 1847.5,534C 1875.3,514.489 1904.3,512.489 1934.5,528C 1938.33,530.668 1941.67,533.835 1944.5,537.5 Z"/></g>
<g><path style="opacity:0.992" fill="#8c354b" d="M 1160.5,635.5 C 1130.62,654.39 1101.28,674.057 1072.5,694.5C 1073.68,634.808 1073.68,575.141 1072.5,515.5C 1089.49,514.11 1106.49,514.277 1123.5,516C 1146.93,518.766 1159.43,531.933 1161,555.5C 1161.64,582.173 1161.47,608.84 1160.5,635.5 Z"/></g>
<g><path style="opacity:0.992" fill="#933a4f" d="M 1375.5,620.5 C 1375.57,620.062 1375.4,619.728 1375,619.5C 1331.03,649.559 1286.87,679.225 1242.5,708.5C 1254.15,642.638 1286.49,589.805 1339.5,550C 1377.99,526.783 1418.32,523.117 1460.5,539C 1463.75,540.027 1466.75,541.527 1469.5,543.5C 1429.71,558.962 1398.38,584.629 1375.5,620.5 Z"/></g>
<g><path style="opacity:0.991" fill="#9f4155" d="M 1752.5,646.5 C 1744.17,650.64 1736.17,655.473 1728.5,661C 1709.71,673.376 1691.38,686.209 1673.5,699.5C 1681.09,652.079 1683.26,604.413 1680,556.5C 1677.97,539.003 1675.31,521.67 1672,504.5C 1734.1,522.997 1761.43,564.664 1754,629.5C 1753.63,635.189 1753.13,640.855 1752.5,646.5 Z"/></g>
<g><path style="opacity:0.994" fill="#a64659" d="M 1944.5,537.5 C 1952.98,548.721 1958.48,561.388 1961,575.5C 1964.14,595.152 1964.3,614.819 1961.5,634.5C 1931.64,654.356 1901.8,674.356 1872,694.5C 1871.54,693.906 1871.37,693.239 1871.5,692.5C 1874.75,671.286 1876.75,649.952 1877.5,628.5C 1879,615.156 1876.34,602.822 1869.5,591.5C 1869.78,590.784 1870.12,589.951 1870.5,589C 1894.83,572.667 1919.17,556.333 1943.5,540C 1944.25,539.329 1944.59,538.496 1944.5,537.5 Z"/></g>
<g><path style="opacity:0.994" fill="#863248" d="M 965.5,506.5 C 975.984,534.419 981.817,563.419 983,593.5C 983.5,604.495 983.667,615.495 983.5,626.5C 949.69,648.575 916.023,670.908 882.5,693.5C 892.403,649.483 894.07,605.15 887.5,560.5C 913.799,542.857 939.799,524.857 965.5,506.5 Z"/></g>
<g><path style="opacity:0.993" fill="#b14d5f" d="M 2276.5,556.5 C 2262.38,607.343 2257.72,659.01 2262.5,711.5C 2233.83,730.833 2205.17,750.167 2176.5,769.5C 2164.94,739.289 2159.61,707.955 2160.5,675.5C 2160.45,659.946 2161.45,644.613 2163.5,629.5C 2201.13,605.491 2238.63,580.491 2276,554.5C 2276.46,555.094 2276.63,555.761 2276.5,556.5 Z"/></g>
<g><path style="opacity:0.994" fill="#9a3e52" d="M 1564.5,645.5 C 1564.1,644.475 1563.44,644.308 1562.5,645C 1531.68,665.663 1501.01,686.497 1470.5,707.5C 1478.3,680.345 1483.46,652.678 1486,624.5C 1487.39,590.719 1486.23,557.053 1482.5,523.5C 1499.19,522.041 1515.85,522.207 1532.5,524C 1561.73,528.569 1575.73,545.735 1574.5,575.5C 1572.74,599.184 1569.4,622.517 1564.5,645.5 Z"/></g>
<g><path style="opacity:0.993" fill="#802e45" d="M 689.5,588.5 C 685.02,627.818 680.687,667.151 676.5,706.5C 675.788,705.261 674.788,704.761 673.5,705C 644.679,724.33 616.012,743.83 587.5,763.5C 593.227,723.749 598.561,684.083 603.5,644.5C 604.381,642.696 605.714,641.196 607.5,640C 634.42,621.957 661.253,603.79 688,585.5C 688.232,586.737 688.732,587.737 689.5,588.5 Z"/></g>
<g><path style="opacity:0.993" fill="#aa495b" d="M 1961.5,634.5 C 1961,643.193 1960.16,651.86 1959,660.5C 1954.71,689.544 1950.21,718.544 1945.5,747.5C 1944.88,747.389 1944.38,747.056 1944,746.5C 1915.09,766.704 1885.93,786.538 1856.5,806C 1855.36,807.145 1854.36,808.312 1853.5,809.5C 1853.92,797.767 1855.09,786.1 1857,774.5C 1861.53,746.973 1866.36,719.64 1871.5,692.5C 1871.37,693.239 1871.54,693.906 1872,694.5C 1901.8,674.356 1931.64,654.356 1961.5,634.5 Z"/></g>
<g><path style="opacity:0.994" fill="#8c364b" d="M 983.5,626.5 C 982.599,704.765 955.265,771.931 901.5,828C 847.858,874.991 785.192,895.657 713.5,890C 682.275,888.122 651.942,881.955 622.5,871.5C 624.304,868.902 626.638,866.735 629.5,865C 644.405,855.391 659.071,845.558 673.5,835.5C 736.701,853.33 790.201,837.997 834,789.5C 857.857,761.453 874.024,729.453 882.5,693.5C 916.023,670.908 949.69,648.575 983.5,626.5 Z"/></g>
<g><path style="opacity:0.99" fill="#9f4155" d="M 1564.5,645.5 C 1560.34,671.82 1556.17,698.154 1552,724.5C 1549.21,744.774 1547.04,765.107 1545.5,785.5C 1522.82,800.526 1500.15,815.526 1477.5,830.5C 1475.04,822.476 1473.54,814.142 1473,805.5C 1472.61,791.822 1472.61,778.155 1473,764.5C 1453.86,823.307 1415.36,863.474 1357.5,885C 1323.17,894.474 1293.01,887.308 1267,863.5C 1263.53,859.88 1260.7,855.88 1258.5,851.5C 1284.12,833.351 1310.12,815.685 1336.5,798.5C 1346.6,825.597 1365.27,834.097 1392.5,824C 1403.42,818.755 1412.92,811.588 1421,802.5C 1435.77,784.635 1447.77,764.969 1457,743.5C 1461.82,731.517 1466.32,719.517 1470.5,707.5C 1501.01,686.497 1531.68,665.663 1562.5,645C 1563.44,644.308 1564.1,644.475 1564.5,645.5 Z"/></g>
<g><path style="opacity:0.994" fill="#a54558" d="M 1752.5,646.5 C 1751.41,655.51 1750.58,664.51 1750,673.5C 1750.57,671.277 1751.4,669.277 1752.5,667.5C 1752.9,668.525 1753.56,668.692 1754.5,668C 1763.17,662 1771.83,656 1780.5,650C 1781.75,649.26 1782.75,649.427 1783.5,650.5C 1763.84,692.139 1751.84,735.806 1747.5,781.5C 1747.48,779.972 1746.82,779.472 1745.5,780C 1716.33,799.833 1687.17,819.667 1658,839.5C 1657.79,841.058 1657.29,842.391 1656.5,843.5C 1655.14,832.488 1655.31,821.488 1657,810.5C 1662.29,773.458 1667.79,736.458 1673.5,699.5C 1691.38,686.209 1709.71,673.376 1728.5,661C 1736.17,655.473 1744.17,650.64 1752.5,646.5 Z"/></g>
<g><path style="opacity:0.997" fill="#ba5263" d="M 2513.5,673.5 C 2512.88,673.389 2512.38,673.056 2512,672.5C 2482.83,692.333 2453.67,712.167 2424.5,732C 2423.18,732.528 2422.52,732.028 2422.5,730.5C 2427.78,704.337 2428.78,678.004 2425.5,651.5C 2443.85,650.033 2462.18,650.2 2480.5,652C 2491.93,653.798 2501.76,658.631 2510,666.5C 2511.7,668.577 2512.87,670.91 2513.5,673.5 Z"/></g>
<g><path style="opacity:0.993" fill="#92394e" d="M 1160.5,635.5 C 1158.38,682.848 1154.04,729.848 1147.5,776.5C 1147.65,775.448 1147.48,774.448 1147,773.5C 1119.5,792.333 1092,811.167 1064.5,830C 1063.18,830.528 1062.52,830.028 1062.5,828.5C 1067.31,783.947 1070.65,739.28 1072.5,694.5C 1101.28,674.057 1130.62,654.39 1160.5,635.5 Z"/></g>
<g><path style="opacity:0.991" fill="#bf5666" d="M 2513.5,673.5 C 2516.39,678.708 2518.23,684.374 2519,690.5C 2522.07,764.83 2513.73,837.83 2494,909.5C 2484.4,942.353 2470.74,973.353 2453,1002.5C 2405.91,1072.22 2340.74,1099.05 2257.5,1083C 2212.1,1071.94 2183.6,1043.77 2172,998.5C 2166.99,971.252 2170.66,945.252 2183,920.5C 2207.61,883.409 2241.11,872.242 2283.5,887C 2286.96,888.481 2290.29,890.148 2293.5,892C 2269.04,921.379 2258.21,955.212 2261,993.5C 2266.26,1029.09 2286.76,1044.59 2322.5,1040C 2345.67,1036 2364.17,1024.5 2378,1005.5C 2392.7,983.755 2403.37,960.088 2410,934.5C 2421.43,889.5 2428.1,843.833 2430,797.5C 2388.81,852.331 2334.64,872.164 2267.5,857C 2262.85,855.666 2258.51,853.833 2254.5,851.5C 2253.94,850.21 2252.94,849.377 2251.5,849C 2273.34,834.581 2295.01,819.914 2316.5,805C 2317.45,804.517 2318.45,804.351 2319.5,804.5C 2349.69,813.492 2375.19,806.158 2396,782.5C 2408.83,767.176 2417.66,749.843 2422.5,730.5C 2422.52,732.028 2423.18,732.528 2424.5,732C 2453.67,712.167 2482.83,692.333 2512,672.5C 2512.38,673.056 2512.88,673.389 2513.5,673.5 Z"/></g>
<g><path style="opacity:0.996" fill="#983d52" d="M 1375.5,620.5 C 1354.1,654.651 1339.93,691.651 1333,731.5C 1328.86,754.159 1330.02,776.493 1336.5,798.5C 1310.12,815.685 1284.12,833.351 1258.5,851.5C 1250.63,840.748 1245.13,828.748 1242,815.5C 1240.23,807.572 1238.9,799.572 1238,791.5C 1236.32,763.638 1237.82,735.971 1242.5,708.5C 1286.87,679.225 1331.03,649.559 1375,619.5C 1375.4,619.728 1375.57,620.062 1375.5,620.5 Z"/></g>
<g><path style="opacity:0.994" fill="#863248" d="M 676.5,706.5 C 672.728,745.769 669.728,785.103 667.5,824.5C 667.833,827.5 668.167,830.5 668.5,833.5C 670.195,834.174 671.862,834.841 673.5,835.5C 659.071,845.558 644.405,855.391 629.5,865C 626.638,866.735 624.304,868.902 622.5,871.5C 606.241,865.418 590.741,857.751 576,848.5C 578.756,820.043 582.589,791.709 587.5,763.5C 616.012,743.83 644.679,724.33 673.5,705C 674.788,704.761 675.788,705.261 676.5,706.5 Z"/></g>
<g><path style="opacity:0.996" fill="#b85162" d="M 2262.5,711.5 C 2265.43,744.188 2278.77,771.688 2302.5,794C 2308.07,797.76 2313.74,801.26 2319.5,804.5C 2318.45,804.351 2317.45,804.517 2316.5,805C 2295.01,819.914 2273.34,834.581 2251.5,849C 2252.94,849.377 2253.94,850.21 2254.5,851.5C 2217.93,834.259 2191.93,806.926 2176.5,769.5C 2205.17,750.167 2233.83,730.833 2262.5,711.5 Z"/></g>
<g><path style="opacity:0.99" fill="#aa485b" d="M 1747.5,781.5 C 1745.59,814.943 1746.59,848.276 1750.5,881.5C 1736.51,882.368 1722.51,882.534 1708.5,882C 1692.74,881.748 1678.9,876.582 1667,866.5C 1661.67,859.681 1658.17,852.014 1656.5,843.5C 1657.29,842.391 1657.79,841.058 1658,839.5C 1687.17,819.667 1716.33,799.833 1745.5,780C 1746.82,779.472 1747.48,779.972 1747.5,781.5 Z"/></g>
<g><path style="opacity:0.989" fill="#b04c5e" d="M 1945.5,747.5 C 1941.58,770.654 1939.25,793.988 1938.5,817.5C 1938.17,832.229 1940.34,846.563 1945,860.5C 1951.89,873.053 1961.72,882.553 1974.5,889C 1948.97,891.856 1923.63,890.523 1898.5,885C 1872.31,878.144 1857.48,861.311 1854,834.5C 1852.59,826.021 1852.43,817.688 1853.5,809.5C 1854.36,808.312 1855.36,807.145 1856.5,806C 1885.93,786.538 1915.09,766.704 1944,746.5C 1944.38,747.056 1944.88,747.389 1945.5,747.5 Z"/></g>
<g><path style="opacity:0.991" fill="#b54f61" d="M 2064.5,788.5 C 2073.84,788.334 2083.17,788.5 2092.5,789C 2109.93,790.769 2121.1,799.936 2126,816.5C 2126.67,823.833 2126.67,831.167 2126,838.5C 2123.48,853.438 2119.64,867.938 2114.5,882C 2095.48,887.116 2076.15,888.783 2056.5,887C 2035.07,883.498 2024.07,870.831 2023.5,849C 2025.63,831.023 2029.3,813.357 2034.5,796C 2035.34,794.413 2036.67,793.58 2038.5,793.5C 2047.22,791.383 2055.89,789.716 2064.5,788.5 Z"/></g>
<g><path style="opacity:0.989" fill="#a44558" d="M 1545.5,785.5 C 1543.13,814.598 1545.63,843.265 1553,871.5C 1555.76,881.603 1559.59,891.27 1564.5,900.5C 1531.49,898.413 1505.66,883.746 1487,856.5C 1482.34,848.356 1479.17,839.689 1477.5,830.5C 1500.15,815.526 1522.82,800.526 1545.5,785.5 Z"/></g>
<g><path style="opacity:0.994" fill="#983d51" d="M 1147.5,776.5 C 1143.08,814.324 1136.08,851.658 1126.5,888.5C 1125.45,888.351 1124.45,888.517 1123.5,889C 1098.83,905.667 1074.17,922.333 1049.5,939C 1046.27,941.064 1043.61,943.564 1041.5,946.5C 1050.68,907.437 1057.68,868.103 1062.5,828.5C 1062.52,830.028 1063.18,830.528 1064.5,830C 1092,811.167 1119.5,792.333 1147,773.5C 1147.48,774.448 1147.65,775.448 1147.5,776.5 Z"/></g>
<g><path style="opacity:0.988" fill="#9b3f53" d="M 1126.5,888.5 C 1114.7,935.745 1096.2,980.079 1071,1021.5C 1053.33,1047.84 1030.17,1067.67 1001.5,1081C 976.141,1091.17 950.141,1093.17 923.5,1087C 880.543,1073.25 862.376,1044.08 869,999.5C 882.45,955.844 911.95,937.01 957.5,943C 961.335,943.707 965.002,944.874 968.5,946.5C 951.156,963.692 941.49,984.525 939.5,1009C 940.608,1038.14 954.941,1048.47 982.5,1040C 995.569,1032.93 1006.07,1023.1 1014,1010.5C 1025.68,990.143 1034.85,968.809 1041.5,946.5C 1043.61,943.564 1046.27,941.064 1049.5,939C 1074.17,922.333 1098.83,905.667 1123.5,889C 1124.45,888.517 1125.45,888.351 1126.5,888.5 Z"/></g>
</svg>
