<svg data-v-423bf9ae="" xmlns="http://www.w3.org/2000/svg" viewBox="0 0 190.0181492349663 60" class="font"><!----><!----><!----><g data-v-423bf9ae="" id="bb76d274-29a2-4712-85f5-ec6764165e09" fill="white" transform="matrix(3.629763914557708,0,0,3.629763914557708,-3.811252581986082,-12.958257647913868)"><path d="M5.99 4.20L5.99 4.20L5.99 4.20Q7.92 4.20 9.03 5.73L9.03 5.73L9.03 5.73Q10.14 7.25 10.14 9.56L10.14 9.56L10.14 9.56Q10.14 11.48 9.28 12.98L9.28 12.98L9.28 12.98Q8.33 14.64 6.61 15.29L6.61 15.29L6.61 15.29Q5.67 15.64 4.63 15.64L4.63 15.64L4.63 15.64Q3.60 15.64 2.72 15.40L2.72 15.40L2.72 15.40Q1.85 15.16 1.46 14.92L1.46 14.92L1.05 14.69L1.05 14.69Q1.06 14.57 1.36 12.60L1.36 12.60L1.36 12.60Q1.97 8.48 1.97 5.14L1.97 5.14L1.97 5.14Q1.97 4.03 1.78 3.57L1.78 3.57L1.78 3.57Q3.28 3.96 3.65 4.80L3.65 4.80L3.65 4.80Q4.90 4.20 5.99 4.20ZM4.31 14.59L4.31 14.59L4.31 14.59Q5.53 14.59 6.42 13.80L6.42 13.80L6.42 13.80Q7.31 13.02 7.71 11.89L7.71 11.89L7.71 11.89Q8.11 10.75 8.11 9.48L8.11 9.48L8.11 9.48Q8.11 7.69 7.34 6.55L7.34 6.55L7.34 6.55Q6.57 5.42 5.26 5.42L5.26 5.42L5.26 5.42Q4.45 5.42 3.84 5.67L3.84 5.67L3.84 5.67Q3.84 6.52 3.46 9.97L3.46 9.97L3.46 9.97Q3.09 13.41 3.09 14.38L3.09 14.38L3.09 14.38Q3.64 14.59 4.31 14.59ZM12.71 7.27L12.71 7.27Q13.48 7.27 13.80 7.52L13.80 7.52L13.80 7.52Q14.11 7.77 14.11 8.52L14.11 8.52L14.11 8.52Q14.11 9.27 14.07 10.17L14.07 10.17L14.07 10.17Q14.03 11.07 13.90 12.27L13.90 12.27L13.90 12.27Q13.78 13.47 13.57 14.52L13.57 14.52L13.57 14.52Q13.37 15.57 13.01 16.62L13.01 16.62L13.01 16.62Q12.64 17.67 12.17 18.42L12.17 18.42L12.17 18.42Q11.70 19.17 10.99 19.64L10.99 19.64L10.99 19.64Q10.28 20.10 9.46 20.10L9.46 20.10L9.46 20.10Q8.64 20.10 8.10 19.64L8.10 19.64L8.10 19.64Q7.56 19.17 7.56 18.49L7.56 18.49L7.56 18.49Q7.56 17.81 8.02 17.30L8.02 17.30L8.02 17.30Q8.48 16.80 9.24 16.80L9.24 16.80L9.24 16.80Q9.53 16.80 9.81 16.90L9.81 16.90L9.81 16.90Q9.59 17.07 9.37 17.49L9.37 17.49L9.37 17.49Q9.16 17.91 9.16 18.28L9.16 18.28L9.16 18.28Q9.16 18.65 9.32 18.86L9.32 18.86L9.32 18.86Q9.48 19.07 9.74 19.07L9.74 19.07L9.74 19.07Q10.42 19.07 10.92 18.19L10.92 18.19L10.92 18.19Q11.42 17.30 11.68 15.85L11.68 15.85L11.68 15.85Q12.17 13.02 12.17 9.66L12.17 9.66L12.17 9.66Q12.17 8.20 12.11 7.29L12.11 7.29L12.11 7.29Q12.42 7.27 12.71 7.27L12.71 7.27ZM13.51 6.08L13.51 6.08L13.51 6.08Q12.07 6.08 12.07 5.07L12.07 5.07L12.07 5.07Q12.07 4.70 12.28 4.07L12.28 4.07L12.28 4.07Q12.67 4.02 12.96 4.02L12.96 4.02L12.96 4.02Q14.41 4.02 14.41 5.03L14.41 5.03L14.41 5.03Q14.41 5.39 14.20 6.02L14.20 6.02L14.20 6.02Q13.80 6.08 13.51 6.08ZM17.88 12.78L17.88 12.78L17.88 12.78Q17.88 13.44 18.12 13.85L18.12 13.85L18.12 13.85Q18.37 14.27 18.82 14.27L18.82 14.27L18.82 14.27Q19.47 14.27 20.07 13.50L20.07 13.50L20.07 13.50Q20.66 12.73 21.02 11.52L21.02 11.52L21.02 11.52Q21.38 10.32 21.38 9.23L21.38 9.23L21.38 9.23Q21.38 8.15 21.29 7.48L21.29 7.48L21.29 7.48Q21.71 7.45 21.88 7.45L21.88 7.45L21.88 7.45Q22.60 7.45 22.96 7.71L22.96 7.71L22.96 7.71Q23.32 7.98 23.32 8.67L23.32 8.67L23.32 8.67Q23.32 8.93 22.99 10.83L22.99 10.83L22.99 10.83Q22.65 12.73 22.65 13.87L22.65 13.87L22.65 13.87Q22.65 15.01 23.09 15.89L23.09 15.89L23.09 15.89Q22.04 15.71 21.55 15.11L21.55 15.11L21.55 15.11Q21.06 14.52 21.06 13.40L21.06 13.40L21.06 13.40Q21.06 13.20 21.11 12.64L21.11 12.64L21.11 12.64Q20.73 13.97 19.77 14.78L19.77 14.78L19.77 14.78Q18.80 15.60 17.87 15.60L17.87 15.60L17.87 15.60Q16.94 15.60 16.37 14.90L16.37 14.90L16.37 14.90Q15.81 14.21 15.81 12.94L15.81 12.94L15.81 12.94Q15.81 11.66 16.26 10.46L16.26 10.46L16.26 10.46Q16.72 9.27 17.63 8.44L17.63 8.44L17.63 8.44Q18.54 7.60 19.66 7.60L19.66 7.60L19.66 7.60Q20.30 7.60 20.97 7.91L20.97 7.91L20.97 7.91Q19.56 8.41 18.72 9.89L18.72 9.89L18.72 9.89Q17.88 11.37 17.88 12.78ZM30.44 7.35L30.44 7.35L30.44 7.35Q31.26 7.35 31.62 7.86L31.62 7.86L31.62 7.86Q31.98 8.37 31.98 9.25L31.98 9.25L31.98 9.25Q31.98 10.12 31.70 11.70L31.70 11.70L31.70 11.70Q31.43 13.29 31.43 14.01L31.43 14.01L31.43 14.01Q31.43 14.73 31.61 15.06L31.61 15.06L31.61 15.06Q31.79 15.39 32.23 15.62L32.23 15.62L32.23 15.62Q32.05 15.64 31.71 15.64L31.71 15.64L31.71 15.64Q30.53 15.64 30.04 15.27L30.04 15.27L30.04 15.27Q29.54 14.91 29.54 14L29.54 14L29.54 14Q29.54 13.48 29.82 11.98L29.82 11.98L29.82 11.98Q30.10 10.47 30.10 9.73L30.10 9.73L30.10 9.73Q30.10 8.81 29.54 8.81L29.54 8.81L29.54 8.81Q29.22 8.81 28.81 9.18L28.81 9.18L28.81 9.18Q28.41 9.56 28.03 10.21L28.03 10.21L28.03 10.21Q27.65 10.86 27.40 11.89L27.40 11.89L27.40 11.89Q27.15 12.91 27.15 13.92L27.15 13.92L27.15 13.92Q27.15 14.94 27.23 15.43L27.23 15.43L27.23 15.43Q26.78 15.46 26.64 15.46L26.64 15.46L26.64 15.46Q25.84 15.46 25.49 15.18L25.49 15.18L25.49 15.18Q25.14 14.90 25.14 14.25L25.14 14.25L25.14 14.25Q25.14 13.97 25.44 12.10L25.44 12.10L25.44 12.10Q25.73 10.22 25.73 9.11L25.73 9.11L25.73 9.11Q25.73 7.99 25.49 7.06L25.49 7.06L25.49 7.06Q26.52 7.38 26.92 7.97L26.92 7.97L26.92 7.97Q27.33 8.57 27.33 9.33L27.33 9.33L27.33 9.33Q27.33 10.09 27.16 11.10L27.16 11.10L27.16 11.10Q27.62 9.53 28.62 8.44L28.62 8.44L28.62 8.44Q29.61 7.35 30.44 7.35ZM34.38 15.58L34.38 15.58L34.38 15.58Q33.35 15.58 33.35 14.71L33.35 14.71L33.35 14.71Q33.35 14.43 33.60 13.52L33.60 13.52L33.60 13.52Q34.09 13.38 34.59 13.38L34.59 13.38L34.59 13.38Q35.63 13.38 35.63 14.25L35.63 14.25L35.63 14.25Q35.63 14.53 35.38 15.44L35.38 15.44L35.38 15.44Q34.89 15.58 34.38 15.58ZM39.76 19.01L39.76 19.01L39.76 19.01Q42.10 19.01 42.42 13.51L42.42 13.51L42.42 13.51Q41.90 14.25 41.17 14.64L41.17 14.64L41.17 14.64Q40.45 15.02 39.68 15.02L39.68 15.02L39.68 15.02Q38.33 15.02 37.37 13.93L37.37 13.93L37.37 13.93Q36.40 12.84 36.40 10.89L36.40 10.89L36.40 10.89Q36.40 8.22 37.79 6.24L37.79 6.24L37.79 6.24Q38.46 5.28 39.52 4.71L39.52 4.71L39.52 4.71Q40.59 4.14 41.95 4.14L41.95 4.14L41.95 4.14Q43.32 4.14 44.04 4.85L44.04 4.85L44.04 4.85Q44.76 5.56 44.76 6.59L44.76 6.59L44.76 6.59Q44.76 7.63 44.11 8.23L44.11 8.23L44.11 8.23Q43.47 8.83 42.59 8.83L42.59 8.83L42.59 8.83Q42.01 8.83 41.50 8.55L41.50 8.55L41.50 8.55Q40.98 8.27 40.70 7.74L40.70 7.74L40.70 7.74Q41.08 7.84 41.41 7.84L41.41 7.84L41.41 7.84Q42.17 7.84 42.61 7.41L42.61 7.41L42.61 7.41Q43.05 6.97 43.05 6.43L43.05 6.43L43.05 6.43Q43.05 5.88 42.69 5.52L42.69 5.52L42.69 5.52Q42.32 5.17 41.65 5.17L41.65 5.17L41.65 5.17Q40.77 5.17 40.05 6.07L40.05 6.07L40.05 6.07Q39.33 6.97 38.96 8.25L38.96 8.25L38.96 8.25Q38.60 9.53 38.60 10.91L38.60 10.91L38.60 10.91Q38.60 12.28 39.14 13.05L39.14 13.05L39.14 13.05Q39.68 13.83 40.45 13.83L40.45 13.83L40.45 13.83Q41.22 13.83 41.78 13.08L41.78 13.08L41.78 13.08Q42.35 12.32 42.35 11.03L42.35 11.03L42.35 11.03Q42.35 10.71 42.31 10.37L42.31 10.37L42.31 10.33L42.31 10.33Q42.62 10.30 42.95 10.30L42.95 10.30L42.95 10.30Q43.76 10.30 44.08 10.58L44.08 10.58L44.08 10.58Q44.39 10.85 44.39 11.51L44.39 11.51L44.39 11.51Q44.39 15.78 42.87 18.17L42.87 18.17L42.87 18.17Q42.34 19.00 41.48 19.52L41.48 19.52L41.48 19.52Q40.63 20.03 39.55 20.03L39.55 20.03L39.55 20.03Q38.08 20.03 37.34 19.29L37.34 19.29L37.34 19.29Q36.61 18.54 36.61 17.57L36.61 17.57L36.61 17.57Q36.61 16.60 37.13 16.02L37.13 16.02L37.13 16.02Q37.65 15.44 38.42 15.44L38.42 15.44L38.42 15.44Q38.84 15.44 39.34 15.68L39.34 15.68L39.34 15.68Q38.60 16.62 38.60 17.65L38.60 17.65L38.60 17.65Q38.60 18.26 38.88 18.63L38.88 18.63L38.88 18.63Q39.16 19.01 39.76 19.01ZM50.51 8.41L50.51 8.41L50.51 8.41Q49.60 8.41 48.89 9.64L48.89 9.64L48.89 9.64Q48.17 10.86 48.17 12.08L48.17 12.08L48.17 12.08Q48.17 14.63 49.49 14.63L49.49 14.63L49.49 14.63Q50.43 14.63 51.02 13.41L51.02 13.41L51.02 13.41Q51.60 12.18 51.60 10.65L51.60 10.65L51.60 10.65Q51.60 8.41 50.51 8.41ZM51.38 7.39L51.38 7.39L51.38 7.39Q52.22 7.39 52.81 8.22L52.81 8.22L52.81 8.22Q53.40 9.04 53.40 10.43L53.40 10.43L53.40 10.43Q53.40 11.98 52.77 13.29L52.77 13.29L52.77 13.29Q52.07 14.76 50.78 15.32L50.78 15.32L50.78 15.32Q50.05 15.64 49.18 15.64L49.18 15.64L49.18 15.64Q47.96 15.64 47.06 14.69L47.06 14.69L47.06 14.69Q46.16 13.75 46.16 11.98L46.16 11.98L46.16 11.98Q46.16 10.21 47.03 8.86L47.03 8.86L47.03 8.86Q47.89 7.50 49.32 7.15L49.32 7.15L49.32 7.15Q49.48 7.15 49.61 7.25L49.61 7.25L49.61 7.25Q49.74 7.34 49.74 7.43L49.74 7.43L49.74 7.43Q48.33 8.41 48.05 10.16L48.05 10.16L48.05 10.16Q48.34 9.38 48.77 8.81L48.77 8.81L48.77 8.81Q49.20 8.23 49.66 7.94L49.66 7.94L49.66 7.94Q50.54 7.39 51.38 7.39Z"></path></g><!----><!----></svg>